<svg id="Group_9089" data-name="Group 9089" xmlns="http://www.w3.org/2000/svg" xmlns:xlink="http://www.w3.org/1999/xlink" width="187.669" height="96.542" viewBox="0 0 187.669 96.542">
  <defs>
    <clipPath id="clip-path">
      <rect id="Rectangle_5971" data-name="Rectangle 5971" width="187.669" height="96.542" transform="translate(0 0)" fill="none"/>
    </clipPath>
  </defs>
  <g id="Group_17304" data-name="Group 17304" clip-path="url(#clip-path)">
    <path id="Path_34474" data-name="Path 34474" d="M81.39,21.72c-.525-.37-1.117.248-1.4.546h0c-1.85,1.938-5.293,5.546-9.939,5.546a4,4,0,0,1-2.91-1.608,5.676,5.676,0,0,0,4.277-3.064,2.419,2.419,0,0,0-.315-2.253,3.262,3.262,0,0,0-2.621-1.375h0a4.676,4.676,0,0,0-4.246,3.7c-1.828,1.171-5.206,2.551-6.281,2.551a2.858,2.858,0,0,1-1.527-.481,5.18,5.18,0,0,1-1.155-2.253,9.259,9.259,0,0,0-.5-1.285A2.673,2.673,0,0,0,53.2,20.671a1.017,1.017,0,0,0-.821.152L48.15,24.272c-.071-.318-.13-.612-.187-.891a12.379,12.379,0,0,0-.7-2.515l-.056-.1c-.466-.642-1.544-1.37-2.274-1.006a17.437,17.437,0,0,0-4.872,4.1c.012-.279.028-.54.045-.8a16.873,16.873,0,0,0,.048-1.724,1.422,1.422,0,0,0-.568-1.187,1.718,1.718,0,0,0-1.526-.507.837.837,0,0,0-.551.681c-.053.328-.1.673-.143,1.031a2.918,2.918,0,0,0-.311,0c-.143,0-.431.018-.831.045-.861.058-2.3.155-3.92.155a31.285,31.285,0,0,1-3.449-.175,5.669,5.669,0,0,0-3.426-1.774,1.822,1.822,0,0,0-1.962,1.267l-.027.01A4.477,4.477,0,0,0,21.2,23.875a17.034,17.034,0,0,1-7,2.287,3.184,3.184,0,0,1-1.164-.2,8.538,8.538,0,0,1-.042-2.074,8.619,8.619,0,0,0-.016-1.771A3.026,3.026,0,0,0,11,20.335c-2.857-.9-6.593,2.361-8.3,4.072V21.218c.1-6.824.194-13.27.85-19.758,0-.878-1.2-1.46-2-1.46C.894,0,.6.407.6.783.3,6.215,0,12.778,0,20.262v7.1a7.378,7.378,0,0,0,.076,1.813A2.172,2.172,0,0,0,1.93,30.542a.949.949,0,0,0,.153-.012.741.741,0,0,0,.665-.775c.158-1.814,4.55-6.5,7.265-6.961-.029.319-.063.7-.063,1.117a4.209,4.209,0,0,0,1.627,3.619A6.361,6.361,0,0,0,15.2,28.612a12.792,12.792,0,0,0,5.959-1.683,4.212,4.212,0,0,0,3.657,2.882,4.82,4.82,0,0,0,5.324-4,4.982,4.982,0,0,0,.041-1.725,23.963,23.963,0,0,0,6.927-.749l.078-.027c-.026.472-.039.942-.039,1.4,0,.71.051,1.473.1,2.21l.016.111A2.976,2.976,0,0,0,39,28.671a.908.908,0,0,0,.929-.132,20.781,20.781,0,0,0,2.26-2.451A18.913,18.913,0,0,1,45.181,23a18.606,18.606,0,0,0,1.129,3.6,2.125,2.125,0,0,0,2.366,1.027,53.943,53.943,0,0,0,4.363-3.347,6.266,6.266,0,0,0,.561.981,7.383,7.383,0,0,0,1.832,1.822,6.833,6.833,0,0,0,3.618,1.078,9.532,9.532,0,0,0,5.269-2.006l0,.009C65.5,29.818,70,30.144,72.577,30.011a10.574,10.574,0,0,0,8.469-5.825c1-2,.54-2.327.344-2.466M67.109,23.612A3.484,3.484,0,0,1,68.5,22.03a.6.6,0,0,1,.234-.06.254.254,0,0,1,.176.065,4.181,4.181,0,0,1-1.805,1.577M26.752,26.426a2.244,2.244,0,0,1-1.774,1.137h0c-.476.028-.978-.073-1.232-1.539a3.373,3.373,0,0,1,.274-1.8c.058-.12.117-.239.151-.327a3.8,3.8,0,0,1,.607-.916,8.455,8.455,0,0,0,2.359.769,3.344,3.344,0,0,1-.381,2.673" fill="#222223"/>
    <path id="Path_34475" data-name="Path 34475" d="M49.235,64.769H49.23c-2.472-.4-5.515,1.584-7.247,3.233l.016-.64a1.956,1.956,0,0,0-1.026-1.5,1.457,1.457,0,0,0-1.371-.1.71.71,0,0,0-.35.589c-.071.644-.134,1.233-.19,1.776-2.6.207-7.392.354-8.6.336.126-3.117.889-12.4,1.166-14.3.207-.619-.346-1.328-.981-1.646a1.434,1.434,0,0,0-1.267-.154.747.747,0,0,0-.417.546c-.411,2.11-1.21,11.953-1.259,14.923l.017.307-.6-.12c-.736-.178-1.107.191-1.2.556a1.652,1.652,0,0,0,1.274,1.732l.539.255c-.183,2.6-.276,5.057-.276,7.294,0,8.031,1.284,13.029,3.9,15.26a.819.819,0,0,0,.327.216,3.71,3.71,0,0,0,1.668.449,2.261,2.261,0,0,0,1.347-.42,4.491,4.491,0,0,0,1.522-2.222,16.176,16.176,0,0,0,.835-5.682c0-.6,0-1.22-.052-1.885a23.412,23.412,0,0,0-2.419-8.971A18.24,18.24,0,0,0,32,71.009a46.989,46.989,0,0,0,6.828-.379c-.241,3.038-.106,3.66.034,3.961a2.3,2.3,0,0,0,2.156,1.374.717.717,0,0,0,.628-.729l.124-.934a4.674,4.674,0,0,1,.2-1.077C43,70.262,46.488,67.51,48.8,67.15a.852.852,0,0,0,.514.673,1.487,1.487,0,0,0,1.71-.583.98.98,0,0,0,.14-1,2.513,2.513,0,0,0-1.932-1.473M32.49,91.2C30.861,89.174,30,84.786,30,78.511c0-2.105.092-4.3.257-6.167a14.442,14.442,0,0,1,1.95,2.751A21.17,21.17,0,0,1,34.251,83c.052.785.1,1.546.1,2.218a12.33,12.33,0,0,1-.724,4.591c-.363,1.09-.76,1.366-.914,1.433a.487.487,0,0,1-.168.034Z" fill="#222223"/>
    <path id="Path_34476" data-name="Path 34476" d="M97.036,68.137a.657.657,0,0,0-.914.218l0,0c-.576.985-5.774,3.4-7.319,3.4a2.858,2.858,0,0,1-1.527-.481,5.18,5.18,0,0,1-1.155-2.253,9.259,9.259,0,0,0-.5-1.285,2.673,2.673,0,0,0-1.568-1.072,1.009,1.009,0,0,0-.821.152L79,70.272c-.071-.318-.13-.612-.187-.891a12.379,12.379,0,0,0-.7-2.515l-.056-.1c-.467-.643-1.543-1.371-2.274-1.006a17.437,17.437,0,0,0-4.872,4.1c.012-.279.028-.54.045-.8A16.873,16.873,0,0,0,71,67.345a1.422,1.422,0,0,0-.568-1.187,1.713,1.713,0,0,0-1.526-.507.837.837,0,0,0-.551.681c-.053.328-.1.673-.143,1.031a2.919,2.919,0,0,0-.311,0c-.143,0-.431.018-.831.045-.861.058-2.3.155-3.92.155a31.286,31.286,0,0,1-3.449-.175,5.669,5.669,0,0,0-3.426-1.774,1.822,1.822,0,0,0-1.962,1.267l-.027.009c-1.391.484-2.813,3.149-2.428,5.461a4.247,4.247,0,0,0,3.809,3.461c.138.009.273.013.407.013a4.788,4.788,0,0,0,4.917-4.014,4.982,4.982,0,0,0,.041-1.725,23.968,23.968,0,0,0,6.927-.749c.026-.009.052-.017.078-.027-.026.472-.039.942-.039,1.4,0,.71.051,1.473.1,2.21l.016.111a2.976,2.976,0,0,0,1.734,1.638.908.908,0,0,0,.929-.132,20.782,20.782,0,0,0,2.26-2.451A18.912,18.912,0,0,1,76.031,69a18.606,18.606,0,0,0,1.129,3.6,2.124,2.124,0,0,0,2.366,1.027,53.942,53.942,0,0,0,4.363-3.347,6.266,6.266,0,0,0,.561.981,7.383,7.383,0,0,0,1.832,1.822A6.833,6.833,0,0,0,89.9,74.162,10.049,10.049,0,0,0,97.189,70.1c.616-1.128.194-1.765-.153-1.964M57.6,72.426a2.245,2.245,0,0,1-1.774,1.137h0c-.476.026-.978-.072-1.232-1.539a4.172,4.172,0,0,1,1.031-3.041,8.439,8.439,0,0,0,2.36.77,3.344,3.344,0,0,1-.381,2.673" fill="#222223"/>
    <path id="Path_34477" data-name="Path 34477" d="M147.735,43.691c-1.374-1.25-6.812,1.409-8.75,2.422a37.153,37.153,0,0,0-.337-4.448,2.151,2.151,0,0,0-1.9-1.6,1.037,1.037,0,0,0-.821.308.529.529,0,0,0-.174.285.56.56,0,0,0-.1.326c-.062.988-2.469,4.536-4.531,5.648a1.493,1.493,0,0,1-1.317.2c-.567-.334-.7-1.483-.782-2.169L129,44.548a12.026,12.026,0,0,1,.244-1.556l.034-.164a1.319,1.319,0,0,1,.41-.552.773.773,0,0,0,.466-.575,1.362,1.362,0,0,0-.449-1.193,1.907,1.907,0,0,0-1.748-.625,2.16,2.16,0,0,0-1.322,1.5,5.449,5.449,0,0,0-.32,1.436c-2.083,1.809-5.427,3.482-7.329,3.113-.775-.216-.748-1.362-.737-1.566a7.312,7.312,0,0,1,.526-1.813c.087-.223.17-.439.239-.643a.945.945,0,0,0-.075-.923,2.378,2.378,0,0,0-1.739-1.074h-.014a.778.778,0,0,0-.686.353l-.628.85a10.179,10.179,0,0,0-9,.683c-.063.043-.121.087-.216.161a9.131,9.131,0,0,1-6.152.282,2.485,2.485,0,0,0-.962-1.775,1.291,1.291,0,0,0-1.425-.014c-.593.415-.991,1.391-.211,2.8.009,1.176-.381,2.946-1.084,3.337-.1.054-.385.214-1.006-.2-.749-.464-.9-1.513-1.025-2.355l-.03-.2.006-.029a.9.9,0,0,0-.011-.572,1.782,1.782,0,0,0-1.481-1.457.913.913,0,0,0-1.078.564.938.938,0,0,0-.117.489c0,.079-.008.185-.016.285-.2.928-1.346,3.815-2.236,4.136a.642.642,0,0,1-.469-.036.443.443,0,0,1-.232-.3,3.786,3.786,0,0,1-.175-1.242,9.73,9.73,0,0,1,1.5-4.593c.3-.351.346-.97-.448-1.758a1.551,1.551,0,0,0-1.279-.34.756.756,0,0,0-.452.379,10.343,10.343,0,0,0-1.553,3.421c-2.08,1.83-5.458,3.532-7.381,3.16-.775-.216-.748-1.362-.737-1.566a7.312,7.312,0,0,1,.526-1.813c.087-.223.169-.439.239-.643a.942.942,0,0,0-.075-.923,2.378,2.378,0,0,0-1.738-1.074h-.015a.775.775,0,0,0-.685.353l-.629.85a10.175,10.175,0,0,0-9,.684A4.19,4.19,0,0,0,65.2,45.262a3.9,3.9,0,0,0,1.731,3.172A3.734,3.734,0,0,0,69,49.012c2.653,0,5.726-2.276,7.158-3.474a5.2,5.2,0,0,0,3.626,2.81c2.075.492,5.157-.791,6.76-2.037a4.7,4.7,0,0,0,.181.659A4.322,4.322,0,0,0,88.36,49.2a3.879,3.879,0,0,0,1.79.51c1.327,0,2.473-.924,3.282-2.623a5.323,5.323,0,0,0,3.893,1.922c2.013-.1,3.039-2.256,3.239-4.058a8.487,8.487,0,0,0,4.3-.031c-.011.114-.016.227-.016.34a3.9,3.9,0,0,0,1.731,3.172,3.734,3.734,0,0,0,2.069.578c2.653,0,5.726-2.276,7.158-3.474a5.2,5.2,0,0,0,3.626,2.81c2.291.547,5.81-1.077,7.209-2.422.029.091.06.183.093.275a4.947,4.947,0,0,0,4.363,3.162c1.573,0,3.508-1.468,5-3.161l.133,1.718-1.029.741c-5.311,3.945-9.233,9.011-10,12.934a6.629,6.629,0,0,0,2.042,5.422,6.987,6.987,0,0,0,4.511,2.142,3,3,0,0,0,.594-.056c3.8-.787,5.928-5.532,6.5-14.524L139,49.954l.031-.365,1.227-.847a41.629,41.629,0,0,1,7.265-3.6c.176-.044.585-.146.681-.536.1-.412-.253-.73-.467-.92M130.779,66.628a2.471,2.471,0,0,1-1.8-.79,3.722,3.722,0,0,1-.936-3.093c.46-2.806,3.173-6.545,7.844-10.814l.3-.276c-.166,6.948-2.266,14.352-5.387,14.968Zm-16.66-23.612a14.131,14.131,0,0,1-6.38,3.394.507.507,0,0,1-.359-.167.494.494,0,0,1-.044-.414c.45-1.882,3.29-2.867,5.864-2.867a7.841,7.841,0,0,1,.919.054m-39.65,0a14.126,14.126,0,0,1-6.38,3.394.507.507,0,0,1-.359-.167.494.494,0,0,1-.044-.414c.45-1.882,3.29-2.867,5.864-2.867a7.815,7.815,0,0,1,.919.054" fill="#f08049"/>
    <path id="Path_34478" data-name="Path 34478" d="M187.39,87.72c-.526-.37-1.118.248-1.4.546h0c-1.85,1.938-5.293,5.546-9.939,5.546a4,4,0,0,1-2.91-1.608,5.675,5.675,0,0,0,4.277-3.064,2.419,2.419,0,0,0-.315-2.253,3.262,3.262,0,0,0-2.621-1.375h0a4.676,4.676,0,0,0-4.246,3.7c-1.828,1.171-5.206,2.551-6.281,2.551a2.858,2.858,0,0,1-1.527-.481,5.18,5.18,0,0,1-1.155-2.253,9.261,9.261,0,0,0-.5-1.285,2.673,2.673,0,0,0-1.568-1.072,1.014,1.014,0,0,0-.821.152l-4.233,3.449c-.071-.318-.13-.612-.187-.891a12.378,12.378,0,0,0-.7-2.515l-.056-.1c-.467-.642-1.545-1.369-2.274-1.006a17.437,17.437,0,0,0-4.872,4.1c.012-.279.028-.54.045-.8a16.871,16.871,0,0,0,.048-1.724,1.422,1.422,0,0,0-.568-1.187,1.718,1.718,0,0,0-1.526-.507.837.837,0,0,0-.551.681c-.053.328-.1.673-.143,1.031a2.919,2.919,0,0,0-.311,0c-.143,0-.431.018-.831.045-.861.058-2.3.155-3.92.155a31.286,31.286,0,0,1-3.449-.175,5.669,5.669,0,0,0-3.426-1.774,1.822,1.822,0,0,0-1.962,1.267l-.027.01a4.477,4.477,0,0,0-2.232,2.985,17.034,17.034,0,0,1-7,2.287,3.184,3.184,0,0,1-1.164-.2A8.538,8.538,0,0,1,119,89.885a8.619,8.619,0,0,0-.016-1.771A3.026,3.026,0,0,0,117,86.335c-2.853-.9-6.593,2.361-8.3,4.072V87.218c.1-6.824.194-13.27.85-19.758,0-.878-1.2-1.46-2-1.46-.658,0-.952.407-.951.783-.3,5.432-.6,12-.6,19.479v7.1a7.378,7.378,0,0,0,.076,1.813,2.172,2.172,0,0,0,1.854,1.367.948.948,0,0,0,.153-.012.741.741,0,0,0,.665-.775c.158-1.814,4.55-6.5,7.265-6.961-.029.319-.063.7-.063,1.117a4.209,4.209,0,0,0,1.627,3.619,6.361,6.361,0,0,0,3.624,1.082,12.792,12.792,0,0,0,5.959-1.683,4.212,4.212,0,0,0,3.657,2.882,4.823,4.823,0,0,0,5.324-4,4.982,4.982,0,0,0,.041-1.725,23.886,23.886,0,0,0,6.927-.749c.026-.009.052-.017.078-.027-.026.472-.039.942-.039,1.4,0,.71.051,1.473.1,2.21l.016.111A2.975,2.975,0,0,0,145,94.671a.906.906,0,0,0,.929-.132,20.78,20.78,0,0,0,2.26-2.451A18.913,18.913,0,0,1,151.181,89a18.606,18.606,0,0,0,1.129,3.6,2.126,2.126,0,0,0,2.366,1.027,53.942,53.942,0,0,0,4.363-3.347,6.265,6.265,0,0,0,.561.981,7.383,7.383,0,0,0,1.832,1.822,6.833,6.833,0,0,0,3.618,1.078,9.532,9.532,0,0,0,5.269-2.006l0,.009c1.178,3.653,5.677,3.982,8.256,3.846a10.574,10.574,0,0,0,8.469-5.825c1-2,.54-2.327.344-2.466m-14.281,1.892a3.484,3.484,0,0,1,1.4-1.582.6.6,0,0,1,.234-.06.254.254,0,0,1,.176.065,4.181,4.181,0,0,1-1.805,1.577m-40.357,2.814a2.244,2.244,0,0,1-1.774,1.137h0c-.479.028-.978-.072-1.232-1.539a3.373,3.373,0,0,1,.274-1.8c.058-.12.117-.239.151-.327a3.8,3.8,0,0,1,.607-.916,8.455,8.455,0,0,0,2.359.769,3.344,3.344,0,0,1-.381,2.673" fill="#f08049"/>
  </g>
</svg>
