<svg xmlns="http://www.w3.org/2000/svg" width="198" height="55.76" viewBox="0 0 198 55.76">
  <g id="Group_9090" data-name="Group 9090" transform="translate(-487 -5400.12)">
    <path id="Path_15460" data-name="Path 15460" d="M8.68,125.715a4.864,4.864,0,0,1-4.831,5.079H0V120.636H3.85a4.864,4.864,0,0,1,4.831,5.079m-.761,0a4.111,4.111,0,0,0-4.069-4.354H.776v8.707H3.85a4.111,4.111,0,0,0,4.069-4.354" transform="translate(487 5324.926)" fill="#222223"/>
    <path id="Path_15461" data-name="Path 15461" d="M37.517,130.794h-.776v-9.027l-3.791,6.241h-.131l-3.791-6.241v9.027h-.776V120.635h.966l3.659,6.008,3.659-6.008h.981Z" transform="translate(469.39 5324.926)" fill="#222223"/>
    <path id="Path_15462" data-name="Path 15462" d="M58.058,125.451a5.17,5.17,0,0,1,5.328-5.239,5.009,5.009,0,0,1,4.391,2.438l-.688.392a4.18,4.18,0,0,0-3.7-2.09,4.5,4.5,0,1,0,0,9,4.189,4.189,0,0,0,3.733-2.134l.688.392a5.011,5.011,0,0,1-4.42,2.482,5.17,5.17,0,0,1-5.328-5.239" transform="translate(450.812 5325.19)" fill="#222223"/>
    <path id="Path_15463" data-name="Path 15463" d="M131.625,23.057A10.655,10.655,0,0,0,128.1,20.6a11.043,11.043,0,0,0-4.4-.881A9.77,9.77,0,0,0,118.58,21.1a11.8,11.8,0,0,0-3.095,2.656l-.077-2.967c0-.664-.313-1.071-.927-1.071h-1.753a.921.921,0,0,0-.959,1.018V45.812a1.6,1.6,0,0,0,.214.9,1.08,1.08,0,0,0,.963.384h1.39a1.016,1.016,0,0,0,.91-.384,1.6,1.6,0,0,0,.215-.9V30.754a6.509,6.509,0,0,1,.662-2.886,8.073,8.073,0,0,1,1.747-2.37,7.865,7.865,0,0,1,10.916.075,7.772,7.772,0,0,1,1.668,2.419,7.29,7.29,0,0,1,.615,2.977V45.756a1.965,1.965,0,0,0,.174.935c.226.406.811.406,1,.406h1.39c.354,0,1.179-.135,1.179-1.392V31.592a13.151,13.151,0,0,0-.85-4.768,11.467,11.467,0,0,0-2.338-3.767" transform="translate(417.333 5387.827)" fill="#222223"/>
    <path id="Path_15464" data-name="Path 15464" d="M9.144,40.485v1.39a.928.928,0,0,1-.585.972A3.145,3.145,0,0,1,7.542,43h-.8a10.888,10.888,0,0,1-2.59-.3,6.192,6.192,0,0,1-.82-.281,5.1,5.1,0,0,1-1.375-.889A5.541,5.541,0,0,1,.5,39.194,11.4,11.4,0,0,1,0,35.511V14.431a1.19,1.19,0,0,1,1.336-1.283H2.46a1.168,1.168,0,0,1,1.284,1.283L3.7,34.759v.053c.053,1.785.3,2.97.775,3.54a3.164,3.164,0,0,0,2.225,1h1a3.106,3.106,0,0,1,.866.122c.266.083.577.327.577,1.01" transform="translate(487 5391.925)" fill="#222223"/>
    <path id="Path_15465" data-name="Path 15465" d="M53.53,23.739a12.846,12.846,0,0,0-4.2-2.945,13.013,13.013,0,0,0-5.272-1.071,12.769,12.769,0,0,0-9.423,4.017,14.166,14.166,0,0,0,0,19.342A12.769,12.769,0,0,0,44.054,47.1a13.018,13.018,0,0,0,5.272-1.072,12.816,12.816,0,0,0,4.2-2.946,14.17,14.17,0,0,0,0-19.342m.238,9.671a10.619,10.619,0,0,1-.735,3.932,10.083,10.083,0,0,1-2.025,3.217,9.765,9.765,0,0,1-3.063,2.176,9.531,9.531,0,0,1-7.678,0,9.743,9.743,0,0,1-3.062-2.176,10.055,10.055,0,0,1-2.026-3.216,10.885,10.885,0,0,1,0-7.864,10.076,10.076,0,0,1,2.027-3.217,9.763,9.763,0,0,1,3.062-2.176,9.527,9.527,0,0,1,7.678,0,9.783,9.783,0,0,1,3.063,2.176,10.076,10.076,0,0,1,2.025,3.216,10.625,10.625,0,0,1,.736,3.932" transform="translate(467.779 5387.827)" fill="#222223"/>
    <path id="Path_15466" data-name="Path 15466" d="M208.761,13.148h-1.117a1.2,1.2,0,0,0-1.337,1.291v5.266c-.015-.023-.038-.038-.053-.061a12.764,12.764,0,0,0-4.2-2.947,12.98,12.98,0,0,0-5.271-1.071,12.763,12.763,0,0,0-9.426,4.018,14.157,14.157,0,0,0,0,19.337,13.049,13.049,0,0,0,18.9,0c.015-.023.038-.038.053-.061a14.011,14.011,0,0,0,2.727-4.291,13.758,13.758,0,0,0,.892-3.391,14.191,14.191,0,0,0,.125-1.81V14.439a1.176,1.176,0,0,0-1.291-1.291m-2.453,18.186a10.214,10.214,0,0,1-2.575,5.127,9.732,9.732,0,0,1-3.061,2.18,9.558,9.558,0,0,1-7.679,0,9.73,9.73,0,0,1-3.061-2.18,10.005,10.005,0,0,1-2.028-3.213,10.872,10.872,0,0,1,0-7.869,10.014,10.014,0,0,1,2.028-3.213,9.736,9.736,0,0,1,3.061-2.18,9.558,9.558,0,0,1,7.679,0,9.738,9.738,0,0,1,3.061,2.18,10.06,10.06,0,0,1,2.028,3.213,10.2,10.2,0,0,1,.547,1.914,10.845,10.845,0,0,1,0,4.041" transform="translate(372.583 5391.925)" fill="#222223"/>
    <path id="Path_15467" data-name="Path 15467" d="M365.292,23.057a10.655,10.655,0,0,0-3.528-2.454,11.043,11.043,0,0,0-4.4-.881,9.77,9.77,0,0,0-5.112,1.382,11.8,11.8,0,0,0-3.1,2.656l-.077-2.967c0-.664-.313-1.071-.927-1.071h-1.753a.921.921,0,0,0-.959,1.018V45.812a1.6,1.6,0,0,0,.214.9,1.08,1.08,0,0,0,.963.384H348a1.016,1.016,0,0,0,.91-.384,1.6,1.6,0,0,0,.215-.9V30.754a6.509,6.509,0,0,1,.662-2.886,8.072,8.072,0,0,1,1.747-2.37,7.865,7.865,0,0,1,10.916.075,7.773,7.773,0,0,1,1.668,2.419,7.29,7.29,0,0,1,.615,2.977V45.756a1.965,1.965,0,0,0,.174.935c.226.406.811.406,1,.406h1.39c.354,0,1.179-.135,1.179-1.392V31.592a13.15,13.15,0,0,0-.85-4.768,11.467,11.467,0,0,0-2.338-3.767" transform="translate(271.684 5387.827)" fill="#222223"/>
    <path id="Path_15468" data-name="Path 15468" d="M450.119,30.894c-.5-.134-1.049-.307-1.621-.515a6.336,6.336,0,0,1-1.521-.8,4.61,4.61,0,0,1-1.127-1.126,2.445,2.445,0,0,1-.415-1.443,3.491,3.491,0,0,1,1.324-2.869,5.273,5.273,0,0,1,3.436-1.106,5.728,5.728,0,0,1,3,.792,6.863,6.863,0,0,1,2.15,2.068c.09.134.38.585.468.67a1.045,1.045,0,0,0,1.5.087l.944-.577a1.2,1.2,0,0,0,.616-.822,1.4,1.4,0,0,0-.192-.908,9.47,9.47,0,0,0-3.588-3.661A9.831,9.831,0,0,0,450.2,19.58a8.734,8.734,0,0,0-6.018,2.042,6.91,6.91,0,0,0-2.3,5.39,5.876,5.876,0,0,0,.664,2.792,7.616,7.616,0,0,0,1.72,2.157,10.276,10.276,0,0,0,2.456,1.566,16.3,16.3,0,0,0,2.885,1.015c.725.173,1.472.39,2.222.646a8.191,8.191,0,0,1,1.99.982,5.831,5.831,0,0,1,1.44,1.388,2.942,2.942,0,0,1,.542,1.752,3.149,3.149,0,0,1-.545,1.834,4.618,4.618,0,0,1-1.422,1.323,6.886,6.886,0,0,1-1.877.776,7.913,7.913,0,0,1-1.912.252,5.333,5.333,0,0,1-1.431-.224,8.437,8.437,0,0,1-1.591-.631,5.783,5.783,0,0,1-1.412-1.007,8.685,8.685,0,0,1-1.19-1.613,1.2,1.2,0,0,0-1.628-.682l-.971.461a1.149,1.149,0,0,0-.7,1.645,9.432,9.432,0,0,0,3.874,4.212,9.829,9.829,0,0,0,5.054,1.349,11.607,11.607,0,0,0,3.594-.49,9.419,9.419,0,0,0,2.929-1.509,7.265,7.265,0,0,0,2.079-2.434,7.022,7.022,0,0,0,.768-3.314c0-3.982-3.126-6.8-9.289-8.365" transform="translate(212.123 5387.916)" fill="#222223"/>
    <path id="Path_15469" data-name="Path 15469" d="M504.25,34.759c0,1.808.243,3.015.721,3.592a3.185,3.185,0,0,0,2.233,1h.995a3.15,3.15,0,0,1,.874.122c.258.084.577.327.577,1.01v1.39a.932.932,0,0,1-.593.972A3.151,3.151,0,0,1,508.04,43h-.8a10.93,10.93,0,0,1-2.59-.3,5.13,5.13,0,0,1-2.2-1.17A5.609,5.609,0,0,1,501,39.194a11.41,11.41,0,0,1-.5-3.684V14.432a1.2,1.2,0,0,1,1.344-1.284h1.063a1.2,1.2,0,0,1,1.344,1.284v1.193h4.322a1.25,1.25,0,0,1,1.4,1.344v.851a1.25,1.25,0,0,1-1.4,1.344H504.25Z" transform="translate(175.031 5391.925)" fill="#222223"/>
    <path id="Path_15470" data-name="Path 15470" d="M421.237,19.722h-1.069a1.194,1.194,0,0,0-1.338,1.285V45.812a1.2,1.2,0,0,0,1.338,1.285h1.069a1.2,1.2,0,0,0,1.339-1.285V21.007a1.2,1.2,0,0,0-1.339-1.285" transform="translate(225.937 5387.827)" fill="#222223"/>
    <path id="Path_15471" data-name="Path 15471" d="M422.181,2.476A2.476,2.476,0,1,1,419.7,0a2.476,2.476,0,0,1,2.476,2.476" transform="translate(226.935 5400.12)" fill="#222223"/>
    <path id="Path_15472" data-name="Path 15472" d="M281.257,44.7a.974.974,0,0,0-1.4,0L269.017,55.542a13.713,13.713,0,0,0,2.092,2.92,13.055,13.055,0,0,0,18.9,0,13.714,13.714,0,0,0,2.092-2.92Zm-.7,13.774A2.476,2.476,0,1,1,283.035,56a2.474,2.474,0,0,1-2.476,2.476" transform="translate(319.317 5372.443)" fill="#f47e35"/>
    <path id="Path_15473" data-name="Path 15473" d="M290.988,33.391a14.838,14.838,0,0,1-.279,2.877L278.444,24a.989.989,0,0,0-1.395,0L264.783,36.268a14.836,14.836,0,0,1-.279-2.877,14,14,0,0,1,1.011-5.309,14.334,14.334,0,0,1,2.781-4.359,13.147,13.147,0,0,1,4.176-2.946A12.924,12.924,0,0,1,277.72,19.7a13.111,13.111,0,0,1,5.274,1.072,12.931,12.931,0,0,1,4.2,2.946,14.333,14.333,0,0,1,2.781,4.359,14,14,0,0,1,1.011,5.309" transform="translate(322.13 5387.838)" fill="#f47e35"/>
  </g>
</svg>
