<svg xmlns="http://www.w3.org/2000/svg" xmlns:xlink="http://www.w3.org/1999/xlink" width="40" height="40" viewBox="0 0 40 40">
  <defs>
    <clipPath id="clip-path">
      <rect id="Rectangle_5924" data-name="Rectangle 5924" width="30.509" height="14.339" fill="#682cde"/>
    </clipPath>
  </defs>
  <g id="Group_17315" data-name="Group 17315" transform="translate(-397 -2365)">
    <rect id="Rectangle_5952" data-name="Rectangle 5952" width="40" height="40" transform="translate(397 2365)" fill="none"/>
    <g id="Group_17279" data-name="Group 17279" transform="translate(402.311 2377.83)">
      <g id="Group_17242" data-name="Group 17242" transform="translate(0 0)" clip-path="url(#clip-path)">
        <path id="Path_34427" data-name="Path 34427" d="M.373,13.627H.915a.073.073,0,0,1,.068.068v2.61a.571.571,0,0,0,.576.576H3.254a.571.571,0,0,0,.576-.576V8.576A.571.571,0,0,0,3.254,8H1.559a.571.571,0,0,0-.576.576v2.61a.073.073,0,0,1-.068.068H.373A.376.376,0,0,0,0,11.627v1.661a.371.371,0,0,0,.373.339" transform="translate(0 -5.288)" fill="#682cde"/>
        <path id="Path_34428" data-name="Path 34428" d="M82.158,11.254h-.542a.073.073,0,0,1-.068-.068V8.576A.571.571,0,0,0,80.971,8H79.276a.571.571,0,0,0-.576.576v7.7a.571.571,0,0,0,.576.576h1.695a.571.571,0,0,0,.576-.576v-2.61a.073.073,0,0,1,.068-.068h.542a.376.376,0,0,0,.373-.373V11.559a.372.372,0,0,0-.373-.305" transform="translate(-52.021 -5.288)" fill="#682cde"/>
        <path id="Path_34429" data-name="Path 34429" d="M35.146,13.56V.746A.752.752,0,0,0,34.4,0H31.282a.752.752,0,0,0-.746.746V5.763H19.01V.746A.752.752,0,0,0,18.265,0H15.146A.752.752,0,0,0,14.4.746V13.594a.752.752,0,0,0,.746.746h3.119a.752.752,0,0,0,.746-.746V8.577H30.536v5.017a.752.752,0,0,0,.746.746H34.4a.781.781,0,0,0,.746-.78" transform="translate(-9.518 0)" fill="#682cde"/>
      </g>
    </g>
  </g>
</svg>
