<svg xmlns="http://www.w3.org/2000/svg" xmlns:xlink="http://www.w3.org/1999/xlink" width="40" height="40" viewBox="0 0 40 40">
  <defs>
    <clipPath id="clip-path">
      <rect id="Rectangle_5927" data-name="Rectangle 5927" width="19.862" height="23.173" fill="#682cde"/>
    </clipPath>
  </defs>
  <g id="Group_17308" data-name="Group 17308" transform="translate(-633 -2320)">
    <rect id="Rectangle_5970" data-name="Rectangle 5970" width="40" height="40" transform="translate(633 2320)" fill="none"/>
    <g id="Group_17247" data-name="Group 17247" transform="translate(643 2328)">
      <g id="Group_17246" data-name="Group 17246" clip-path="url(#clip-path)">
        <path id="Path_34435" data-name="Path 34435" d="M17.379,0H2.483A2.486,2.486,0,0,0,0,2.483V20.69a2.486,2.486,0,0,0,2.483,2.483h14.9a2.486,2.486,0,0,0,2.483-2.483V2.483A2.486,2.486,0,0,0,17.379,0Zm-3.31,2.483a.827.827,0,1,1-.827.827.827.827,0,0,1,.827-.827M2.483,3.311a.827.827,0,0,1,.827-.827H5.793a.827.827,0,1,1,0,1.655H3.31a.827.827,0,0,1-.827-.827M9.931,20.69a6.621,6.621,0,1,1,6.621-6.621A6.628,6.628,0,0,1,9.931,20.69M16.551,4.138a.827.827,0,1,1,.827-.827.827.827,0,0,1-.827.827" transform="translate(0 0)" fill="#682cde"/>
        <path id="Path_34436" data-name="Path 34436" d="M21.867,46.4a5.514,5.514,0,0,0-4.99.015,4.965,4.965,0,0,0,9.929-.006,5.511,5.511,0,0,1-4.94-.009Z" transform="translate(-11.911 -32.33)" fill="#682cde"/>
      </g>
    </g>
  </g>
</svg>
